# AST/ASF file generated using VICON BodyLanguage
# -----------------------------------------------
:version 1.10
:name VICON
:units
  mass 1.0
  length 0.45
  angle deg
:documentation
   .ast/.asf automatically generated from VICON data using
   VICON BodyBuilder and BodyLanguage model FoxedUp or BRILLIANT.MOD
:root
   order TX TY TZ RX RY RZ
   axis XYZ
   position 0 0 0  
   orientation 0 0 0 
:bonedata
  begin
     id 1 
     name lhipjoint
     direction 0.645893 -0.654526 0.392961 
     length 2.38111 
     axis 0 0 0  XYZ
  end
  begin
     id 2 
     name lfemur
     direction 0.34202 -0.939693 0  
     length 6.6822  
     axis 0 0 20  XYZ
    dof rx ry rz
    limits (-160.0 20.0)
           (-70.0 70.0)
           (-60.0 70.0)
  end
  begin
     id 3 
     name ltibia
     direction 0.34202 -0.939693 0   
     length 6.93904   
     axis 0 0 20   XYZ
    dof rx
    limits (-10.0 170.0)
  end
  begin
     id 4 
     name lfoot
     direction 0.0694967 -0.190941 0.979138   
     length 2.13616   
     axis -90 7.62852e-016 20   XYZ
    dof rx rz
    limits (-45.0 90.0)
           (-70.0 20.0)
  end
  begin
     id 5 
     name ltoes
     direction 1.535e-011 -4.2202e-011 1   
     length 1.07536   
     axis -90 7.62852e-016 20   XYZ
    dof rx
    limits (-90.0 20.0)
  end
  begin
     id 6 
     name rhipjoint
     direction -0.700219 -0.612087 0.367481   
     length 2.54621  
     axis 0 0 0  XYZ 
  end
  begin
     id 7 
     name rfemur
     direction -0.34202 -0.939693 0   
     length 6.55353   
     axis 0 0 -20   XYZ
    dof rx ry rz
    limits (-160.0 20.0)
           (-70.0 70.0)
           (-70.0 60.0)
  end
  begin
     id 8 
     name rtibia
     direction -0.34202 -0.939693 0   
     length 6.8736   
     axis 0 0 -20   XYZ
    dof rx
    limits (-10.0 170.0)
 end
 begin
     id 9 
     name rfoot
     direction -0.0679995 -0.186827 0.980037   
     length 2.1218  
     axis -90 -7.62852e-016 -20   XYZ
    dof rx rz
    limits (-45.0 90.0)
           (-20.0 70.0)
  end
  begin
     id 10 
     name rtoes
     direction -1.53589e-011 -4.21772e-011 1   
     length 1.06864   
     axis -90 -7.62852e-016 -20   XYZ
    dof rx
    limits (-90.0 20.0)
  end
  begin
     id 11 
     name lowerback
     direction -0.0416607 0.996347 -0.0745409   
     length 2.12205   
     axis 0 0 0   XYZ
    dof rx ry rz
    limits (-20.0 45.0)
           (-30.0 30.0)
           (-30.0 30.0)
  end
  begin
     id 12 
     name upperback
     direction -0.000153993 0.999276 -0.0380568   
     length 2.12759   
     axis 0 0 0   XYZ
    dof rx ry rz
    limits (-20.0 45.0)
           (-30.0 30.0)
           (-30.0 30.0)
  end
  begin
     id 13 
     name thorax
     direction 0.0187671 0.999821 -0.00241421   
     length 2.13704   
     axis 0 0 0   XYZ
    dof rx ry rz
    limits (-20.0 45.0)
           (-30.0 30.0)
           (-30.0 30.0)
  end
  begin
     id 14 
     name lowerneck
     direction 0.0268157 0.964865 0.261374   
     length 1.65253   
     axis 0 0 0   XYZ
    dof rx ry rz
    limits (-20.0 45.0)
           (-30.0 30.0)
           (-30.0 30.0)
  end
  begin
     id 15 
     name upperneck
     direction 0.00263774 0.939908 -0.341418   
     length 1.72375   
     axis 0 0 0   XYZ
    dof rx ry rz
    limits (-20.0 45.0)
           (-30.0 30.0)
           (-30.0 30.0)
  end
  begin
     id 16
     name head
     direction -0.00526001 0.989001 -0.147818  
     length 1.74878  
     axis 0 0 0   XYZ
    dof rx ry rz
    limits (-20.0 45.0)
           (-30.0 30.0)
           (-30.0 30.0)
  end
  begin
     id 17 
     name lclavicle
     direction 0.881214 0.461162 -0.103884  
     length 3.25108  
     axis 0 0 0   XYZ
    dof ry rz
    limits (-20.0 10.0)
           (0.0 20.0)
  end
  begin
     id 18 
     name lhumerus
     direction 1 -4.4899e-011 3.38092e-027   
     length 4.87408   
     axis 180 -30 -90   XYZ
    dof rx ry rz
    limits (-60.0 90.0)
           (-90.0 90.0)
           (-90.0 90.0)
  end
  begin
     id 19
     name lradius
     direction 1 -4.48931e-011 9.96288e-027   
     length 2.76729   
     axis 180 -30 -90   XYZ
    dof rx
    limits (-10.0 170.0)
  end
  begin
     id 20
     name lwrist
     direction 1 -4.4896e-011 1.50617e-026   
     length 1.38364   
     axis -9.31234e-015 90 90   XYZ
    dof ry
    limits (-180.0 0.0)
 end
  begin
     id 21 
     name lhand
     direction 1 -4.49038e-011 3.01286e-026   
     length 0.98922   
     axis -1.92217e-014 90 90   XYZ
    dof rx rz
    limits (-90.0 90.0)
           (-45.0 45.0)
  end
  begin
     id 22 
     name lfingers
     direction 1 -4.49051e-011 6.02588e-026   
     length 0.797535   
     axis -3.84436e-014 90 90   XYZ
    dof rx
    limits (0.0 90.0)
  end
  begin
     id 23
     name lthumb
     direction 0.707107 -6.34901e-011 0.707107   
     length 1.14511   
     axis -90 45 2.19363e-014   XYZ
    dof rx rz
    limits (-45.0 45.0)
           (-45.0 45.0)
  end
  begin
     id 24 
     name rclavicle
     direction -0.893894 0.441652 -0.0767889   
     length 3.29361  
     axis 0 0 0   XYZ 
    dof ry rz
    limits (-10.0 20.0)
           (-20.0 0.0)
  end
  begin
     id 25 
     name rhumerus
     direction -1 -4.48945e-011 8.0491e-028  
     length 4.71404   
     axis 180 30 90   XYZ
    dof rx ry rz
    limits (-90.0 60.0)
           (-90.0 90.0)
           (-90.0 90.0)
  end
  begin
     id 26 
     name rradius
     direction -1 -4.48986e-011 9.27795e-027   
     length 2.83468   
     axis 180 30 90   XYZ
    dof rx
    limits (-10.0 170.0)
  end
  begin
     id 27 
     name rwrist
     direction -1 -4.49029e-011 1.5064e-026   
     length 1.41734   
     axis -9.31234e-015 -90 -90   XYZ
    dof ry
    limits (-180.0 0.0)
  end
  begin
     id 28
     name rhand
     direction -1 -4.48857e-011 3.01165e-026   
     length 0.868195   
     axis -1.92217e-014 -90 -90   XYZ
    dof rx rz
    limits (-90.0 90.0)
           (-45.0 45.0)
  end
  begin
     id 29
     name rfingers
     direction -1 -4.49048e-011 6.02585e-026   
     length 0.699961   
     axis -3.84436e-014 -90 -90   XYZ
    dof rx
    limits (0.0 90.0)
  end
  begin
     id 30
     name rthumb
     direction -0.707107 -6.34854e-011 0.707107   
     length 1.00501   
     axis -90 -45 -2.19363e-014   XYZ
    dof rx rz
    limits (-45.0 45.0)
           (-45.0 45.0)
  end
:hierarchy
  begin
    root lhipjoint rhipjoint lowerback
    lhipjoint lfemur
    lfemur ltibia
    ltibia lfoot
    lfoot ltoes
    rhipjoint rfemur
    rfemur rtibia
    rtibia rfoot
    rfoot rtoes
    lowerback upperback
    upperback thorax
    thorax lowerneck lclavicle rclavicle
    lowerneck upperneck
    upperneck head
    lclavicle lhumerus
    lhumerus lradius
    lradius lwrist
    lwrist lhand lthumb
    lhand lfingers
    rclavicle rhumerus
    rhumerus rradius
    rradius rwrist
    rwrist rhand rthumb
    rhand rfingers
  end

#!OML:ASF H:\ManfredObstacles\Project 1\Capture day 2\Session 1\male.ASF
:FULLY-SPECIFIED
:DEGREES
173
root 2.38537 8.06991 17.1435 -142.403 -8.45758 168.218
lowerback 38.8959 1.08327 -1.57083
upperback 13.8939 -3.47184 -2.48684
thorax -3.63923 -3.05623 -0.480243
lowerneck -27.9655 -1.04822 5.38294
upperneck 14.4526 -4.49182 4.08288
head 9.07099 -1.33569 -0.122501
rclavicle 3.97569e-014 -1.05853e-014
rhumerus 45.5171 -5.38011 -82.1371
rradius 36.5846
rwrist 37.8781
rhand -38.4345 -11.4896
rfingers 7.12502
rthumb -11.4583 -41.1565
lclavicle 3.97569e-014 -1.05853e-014
lhumerus 66.8938 -5.65219 50.4973
lradius 41.9839
lwrist -30.8436
lhand -13.9435 12.6743
lfingers 7.12502
lthumb 12.1836 42.2994
rfemur -95.3202 -9.95818 34.4649
rtibia 150.591
rfoot -26.1866 -29.9866
rtoes -24.271
lfemur -88.9876 10.3455 -25.6732
ltibia 144.038
lfoot -6.79216 17.8591
ltoes -4.53746
174
root 2.40296 8.10129 16.9539 -141.682 -8.66768 167.909
lowerback 38.4659 0.982302 -1.65608
upperback 13.6841 -3.48215 -2.42693
thorax -3.72688 -3.02276 -0.374196
lowerneck -27.563 -1.11378 5.69123
upperneck 14.3265 -4.63389 3.99745
head 8.95226 -1.405 -0.21881
rclavicle 2.3059e-014 -1.56046e-014
rhumerus 44.2891 -5.54458 -82.7468
rradius 36.7688
rwrist 38.5948
rhand -39.2422 -11.4998
rfingers 7.12502
rthumb -12.2372 -41.1218
lclavicle 2.3059e-014 -1.56046e-014
lhumerus 67.4354 -5.80674 50.8189
lradius 40.9586
lwrist -31.1719
lhand -13.9463 12.7462
lfingers 7.12502
lthumb 12.1809 42.3716
rfemur -95.349 -10.4093 34.6566
rtibia 150.508
rfoot -24.5687 -28.9472
rtoes -23.4642
lfemur -88.3763 9.90368 -25.4695
ltibia 143.407
lfoot -6.20578 17.2953
ltoes -3.86348
175
root 2.4198 8.13217 16.7625 -140.969 -8.87954 167.609
lowerback 37.9369 0.744478 -1.67416
upperback 13.6573 -3.70535 -2.50764
thorax -3.59295 -3.10546 -0.388052
lowerneck -27.566 -1.04595 5.96023
upperneck 14.2769 -4.66884 4.08053
head 8.93382 -1.40209 -0.237506
rclavicle -1.43125e-014 -3.68249e-014
rhumerus 43.3693 -5.4499 -83.6148
rradius 36.9848
rwrist 39.2542
rhand -40.0314 -11.4778
rfingers 7.12502
rthumb -12.9981 -41.0528
lclavicle -1.43125e-014 -3.68249e-014
lhumerus 68.0451 -5.539 50.9331
lradius 39.8345
lwrist -31.5672
lhand -13.9829 12.8286
lfingers 7.12502
lthumb 12.1456 42.456
rfemur -95.4267 -10.8828 34.8236
rtibia 150.414
rfoot -22.8005 -27.8863
rtoes -22.5372
lfemur -87.7491 9.45967 -25.2584
ltibia 142.76
lfoot -5.66189 16.7522
ltoes -3.29609
176
root 2.43586 8.16323 16.5701 -140.276 -9.10469 167.324
lowerback 37.3483 0.409987 -1.64498
upperback 13.7804 -4.08572 -2.67261
thorax -3.28235 -3.27711 -0.472532
lowerneck -27.9152 -0.882538 6.16138
upperneck 14.3109 -4.62782 4.30313
head 9.00815 -1.34558 -0.188577
rclavicle 3.29983e-014 -1.54555e-014
rhumerus 42.6831 -5.13497 -84.641
rradius 37.2717
rwrist 39.8334
rhand -40.7703 -11.4067
rfingers 7.12502
rthumb -13.7102 -40.935
lclavicle 3.29983e-014 -1.54555e-014
lhumerus 68.7088 -4.93662 50.9863
lradius 38.6203
lwrist -32.127
lhand -14.0636 12.9024
lfingers 7.12502
lthumb 12.0678 42.5344
rfemur -95.5118 -11.3977 34.9617
rtibia 150.296
rfoot -20.9513 -26.827
rtoes -21.5596
lfemur -87.1003 9.00653 -25.0327
ltibia 142.099
lfoot -5.16636 16.225
ltoes -2.86101
177
root 2.45136 8.19418 16.3771 -139.611 -9.34351 167.052
lowerback 36.6244 0.0541857 -1.62009
upperback 14.103 -4.52318 -2.8456
thorax -2.85034 -3.49014 -0.535821
lowerneck -28.4233 -0.676403 6.3026
upperneck 14.3467 -4.54075 4.57397
head 9.112 -1.26426 -0.106625
rclavicle -5.1684e-015 -3.95581e-014
rhumerus 42.124 -4.68122 -85.6608
rradius 37.6376
rwrist 40.351
rhand -41.4517 -11.3085
rfingers 7.12502
rthumb -14.3669 -40.7913
lclavicle -5.1684e-015 -3.95581e-014
lhumerus 69.4249 -4.14393 51.1756
lradius 37.3427
lwrist -32.7997
lhand -14.1598 12.9589
lfingers 7.12502
lthumb 11.975 42.5963
rfemur -95.56 -11.9641 35.0609
rtibia 150.149
rfoot -19.0922 -25.7319
rtoes -20.476
lfemur -86.4218 8.5021 -24.7817
ltibia 141.428
lfoot -4.65843 15.7254
ltoes -2.40738
178
root 2.46619 8.22595 16.1836 -138.982 -9.60611 166.795
lowerback 36.1277 -0.0965887 -1.78878
upperback 14.1428 -4.7032 -2.71771
thorax -2.62197 -3.57792 -0.280529
lowerneck -28.3879 -0.638288 6.3689
upperneck 14.2219 -4.53103 4.66451
head 9.06472 -1.25494 -0.0836399
rclavicle -2.38542e-015 1.14301e-015
rhumerus 41.1831 -4.38383 -86.0864
rradius 38.123
rwrist 40.7231
rhand -42.0737 -11.2243
rfingers 7.12502
rthumb -14.9662 -40.6635
lclavicle -2.38542e-015 1.14301e-015
lhumerus 70.0578 -3.75572 52.0652
lradius 36.015
lwrist -33.5842
lhand -14.2584 12.9895
lfingers 7.12502
lthumb 11.8799 42.6325
rfemur -95.5287 -12.5932 35.1246
rtibia 149.959
rfoot -17.2308 -24.5754
rtoes -19.2229
lfemur -85.7093 8.05426 -24.528
ltibia 140.739
lfoot -4.16962 15.2278
ltoes -1.9298
179
root 2.48018 8.25816 15.9898 -138.384 -9.89461 166.542
lowerback 35.6844 -0.231602 -1.97003
upperback 14.1907 -4.87167 -2.53264
thorax -2.39282 -3.66549 0.0361335
lowerneck -28.2957 -0.613007 6.38857
upperneck 14.0294 -4.50039 4.72127
head 8.98391 -1.24619 -0.0614419
rclavicle -4.6118e-014 1.3244e-014
rhumerus 40.2468 -4.04795 -86.3845
rradius 38.6611
rwrist 41.061
rhand -42.6394 -11.1945
rfingers 7.12502
rthumb -15.5111 -40.5923
lclavicle -4.6118e-014 1.3244e-014
lhumerus 70.6663 -3.38166 53.2113
lradius 34.7267
lwrist -34.3736
lhand -14.3063 13.0271
lfingers 7.12502
lthumb 11.8337 42.6728
rfemur -95.4078 -13.3008 35.1364
rtibia 149.73
rfoot -15.4501 -23.3722
rtoes -17.6701
lfemur -84.9519 7.62152 -24.2662
ltibia 140.03
lfoot -3.70559 14.7522
ltoes -1.44518
180
root 2.49285 8.29055 15.7954 -137.804 -10.2073 166.289
lowerback 35.1249 -0.222726 -2.21189
upperback 14.3489 -4.88423 -2.18683
thorax -1.98396 -3.69782 0.485201
lowerneck -28.1347 -0.674947 6.37746
upperneck 13.6286 -4.52538 4.67633
head 8.81475 -1.28651 -0.0767781
rclavicle -3.77691e-014 3.55328e-015
rhumerus 39.4146 -3.88299 -86.3833
rradius 39.2613
rwrist 41.3373
rhand -43.1671 -11.2236
rfingers 7.12502
rthumb -16.0193 -40.5813
lclavicle -3.77691e-014 3.55328e-015
lhumerus 71.4458 -3.14555 54.7828
lradius 33.5071
lwrist -35.1738
lhand -14.3235 13.0686
lfingers 7.12502
lthumb 11.8172 42.7152
rfemur -95.1987 -14.0807 35.1009
rtibia 149.459
rfoot -13.7361 -22.1422
rtoes -15.8118
lfemur -84.1704 7.19793 -23.9999
ltibia 139.299
lfoot -3.26165 14.2972
ltoes -0.990963
181
root 2.50371 8.32213 15.5999 -137.217 -10.528 166.025
lowerback 34.6386 -0.27011 -2.40861
upperback 14.4647 -4.95188 -1.87735
thorax -1.64875 -3.75106 0.896014
lowerneck -27.9193 -0.727493 6.30348
upperneck 13.2102 -4.51887 4.67482
head 8.63454 -1.31258 -0.0622011
rclavicle -3.10104e-014 4.38072e-014
rhumerus 38.517 -3.62069 -86.3626
rradius 39.9025
rwrist 41.5459
rhand -43.6904 -11.3213
rfingers 7.12502
rthumb -16.5232 -40.6378
lclavicle -3.10104e-014 4.38072e-014
lhumerus 72.0636 -2.95765 56.3389
lradius 32.4234
lwrist -35.7994
lhand -14.3093 13.1381
lfingers 7.12502
lthumb 11.8308 42.7839
rfemur -94.9296 -14.9284 34.9969
rtibia 149.153
rfoot -12.1507 -20.8483
rtoes -13.7575
lfemur -83.3871 6.75992 -23.7497
ltibia 138.546
lfoot -2.84911 13.8859
ltoes -0.586922
182
root 2.51239 8.35251 15.4034 -136.6 -10.8423 165.748
lowerback 34.2293 -0.361304 -2.51976
upperback 14.5329 -5.04446 -1.6323
thorax -1.40001 -3.80518 1.20943
lowerneck -27.7363 -0.782616 6.20979
upperneck 12.8334 -4.52938 4.73281
head 8.47746 -1.33875 -0.0270275
rclavicle 1.19271e-015 -9.03228e-015
rhumerus 37.5539 -3.36284 -86.346
rradius 40.5756
rwrist 41.6835
rhand -44.2356 -11.4679
rfingers 7.12502
rthumb -17.0479 -40.7399
lclavicle 1.19271e-015 -9.03228e-015
lhumerus 72.556 -2.9027 57.6904
lradius 31.5118
lwrist -36.1511
lhand -14.4073 13.2118
lfingers 7.12502
lthumb 11.7364 42.863
rfemur -94.6621 -15.8199 34.8337
rtibia 148.808
rfoot -10.637 -19.5044
rtoes -11.6446
lfemur -82.6319 6.32706 -23.5288
ltibia 137.774
lfoot -2.4749 13.5113
ltoes -0.221734
183
root 2.51863 8.38042 15.2059 -135.922 -11.1308 165.447
lowerback 33.8325 -0.512955 -2.58968
upperback 14.5541 -5.19274 -1.45377
thorax -1.21094 -3.87633 1.45219
lowerneck -27.5353 -0.809499 6.06051
upperneck 12.481 -4.50067 4.86839
head 8.3308 -1.34074 0.0487077
rclavicle 1.19271e-014 4.09993e-016
rhumerus 36.539 -3.02424 -86.3555
rradius 41.2549
rwrist 41.7707
rhand -44.8194 -11.6615
rfingers 7.12502
rthumb -17.6099 -40.884
lclavicle 1.19271e-014 4.09993e-016
lhumerus 72.8584 -2.90361 58.6895
lradius 30.7914
lwrist -36.2765
lhand -14.7638 13.3246
lfingers 7.12502
lthumb 11.3926 42.9951
rfemur -94.4537 -16.7356 34.611
rtibia 148.437
rfoot -9.17762 -18.1171
rtoes -9.70115
lfemur -81.9479 5.90066 -23.3556
ltibia 136.993
lfoot -2.16331 13.1712
ltoes 0.0191961
184
root 2.52218 8.40493 15.0076 -135.176 -11.39 165.131
lowerback 33.472 -0.770596 -2.58992
upperback 14.4937 -5.44112 -1.38609
thorax -1.13193 -3.97876 1.5803
lowerneck -27.3429 -0.78575 5.86454
upperneck 12.2177 -4.415 5.08943
head 8.22107 -1.30549 0.168056
rclavicle 4.77083e-015 -6.8705e-015
rhumerus 35.4316 -2.54475 -86.4632
rradius 41.936
rwrist 41.8319
rhand -45.4285 -11.8964
rfingers 7.12502
rthumb -18.1959 -41.0653
lclavicle 4.77083e-015 -6.8705e-015
lhumerus 72.8637 -2.92672 59.1933
lradius 30.2963
lwrist -36.2737
lhand -15.4582 13.5139
lfingers 7.12502
lthumb 10.7228 43.2203
rfemur -94.3303 -17.6559 34.3548
rtibia 148.038
rfoot -7.61993 -16.712
rtoes -7.42923
lfemur -81.344 5.50046 -23.2244
ltibia 136.209
lfoot -1.91874 12.8554
ltoes 0.143035
185
root 2.52324 8.42559 14.8092 -134.352 -11.6105 164.8
lowerback 32.6924 -1.11025 -2.50744
upperback 14.6436 -5.74184 -1.50045
thorax -0.986352 -4.09712 1.61579
lowerneck -27.2724 -0.71275 5.7212
upperneck 12.1081 -4.30042 5.28535
head 8.18183 -1.24748 0.273526
rclavicle 5.64548e-014 -1.83503e-014
rhumerus 34.2482 -1.99245 -86.6519
rradius 42.6084
rwrist 41.8795
rhand -46.0523 -12.1539
rfingers 7.12502
rthumb -18.7959 -41.2658
lclavicle 5.64548e-014 -1.83503e-014
lhumerus 72.6281 -2.99821 59.1803
lradius 30.0266
lwrist -36.2844
lhand -16.5234 13.8708
lfingers 7.12502
lthumb 9.69518 43.6277
rfemur -94.318 -18.5642 34.0802
rtibia 147.623
rfoot -5.98468 -15.3187
rtoes -4.75948
lfemur -80.8361 5.1236 -23.1368
ltibia 135.425
lfoot -1.71879 12.5535
ltoes 0.237452
186
root 2.52179 8.4424 14.611 -133.473 -11.7972 164.471
lowerback 32.2685 -1.42877 -2.46183
upperback 14.4985 -6.03283 -1.51298
thorax -0.967971 -4.20492 1.64524
lowerneck -27.225 -0.623494 5.59437
upperneck 12.0429 -4.15807 5.40717
head 8.15817 -1.1801 0.355056
rclavicle -2.26615e-014 2.0071e-014
rhumerus 33.0625 -1.40909 -86.7457
rradius 43.2717
rwrist 41.8707
rhand -46.6861 -12.4106
rfingers 7.12502
rthumb -19.4055 -41.4623
lclavicle -2.26615e-014 2.0071e-014
lhumerus 72.2384 -3.12869 58.8915
lradius 29.9526
lwrist -36.541
lhand -17.9788 14.514
lfingers 7.12502
lthumb 8.29077 44.3313
rfemur -94.3841 -19.4506 33.8109
rtibia 147.192
rfoot -4.27162 -13.9593
rtoes -1.74574
lfemur -80.3986 4.79185 -23.076
ltibia 134.637
lfoot -1.55836 12.2573
ltoes 0.29245
187
root 2.51798 8.4555 14.4137 -132.558 -11.9615 164.146
lowerback 31.8194 -1.78002 -2.39704
upperback 14.328 -6.3551 -1.54646
thorax -0.969873 -4.32357 1.64823
lowerneck -27.2363 -0.499117 5.48092
upperneck 12.0831 -3.97445 5.4775
head 8.17764 -1.09141 0.42277
rclavicle 7.67309e-014 -4.66212e-015
rhumerus 31.8484 -0.724593 -86.8128
rradius 43.9382
rwrist 41.8195
rhand -47.2957 -12.6783
rfingers 7.12502
rthumb -19.9915 -41.6699
lclavicle 7.67309e-014 -4.66212e-015
lhumerus 71.636 -3.25452 58.3372
lradius 30.0851
lwrist -37.0345
lhand -19.7062 15.5251
lfingers 7.12502
lthumb 6.62347 45.4016
rfemur -94.5004 -20.3207 33.5601
rtibia 146.748
rfoot -2.58853 -12.7193
rtoes 1.30601
lfemur -80.0001 4.48441 -23.0227
ltibia 133.837
lfoot -1.40971 11.965
ltoes 0.16937
